General
Complete name                            : Carnage [2011] 720p ReRip BRRip H264 AC3 - CODY.mp4
Format                                   : MPEG-4
Format profile                           : Base Media
Codec ID                                 : isom
File size                                : 1.20 GiB
Duration                                 : 1h 19mn
Overall bit rate mode                    : Variable
Overall bit rate                         : 2 158 Kbps
Encoded date                             : UTC 2012-03-20 11:25:31
Tagged date                              : UTC 2012-03-20 11:25:31

Video
ID                                       : 1
Format                                   : AVC
Format/Info                              : Advanced Video Codec
Format profile                           : High@L4.1
Format settings, CABAC                   : Yes
Format settings, ReFrames                : 5 frames
Codec ID                                 : avc1
Codec ID/Info                            : Advanced Video Coding
Duration                                 : 1h 19mn
Bit rate mode                            : Variable
Bit rate                                 : 1 707 Kbps
Maximum bit rate                         : 20.0 Mbps
Width                                    : 1 280 pixels
Height                                   : 544 pixels
Display aspect ratio                     : 2.35:1
Frame rate mode                          : Constant
Frame rate                               : 23.976 fps
Color space                              : YUV
Chroma subsampling                       : 4:2:0
Bit depth                                : 8 bits
Scan type                                : Progressive
Bits/(Pixel*Frame)                       : 0.102
Stream size                              : 973 MiB (79%)
Writing library                          : x264 core 119 r2106 07efeb4
Encoding settings                        : rc=2pass

Audio
ID                                       : 2
Format                                   : AC-3
Format/Info                              : Audio Coding 3
Mode extension                           : CM (complete main)
Codec ID                                 : ac-3
Duration                                 : 1h 19mn
Bit rate mode                            : Constant
Bit rate                                 : 448 Kbps
Channel(s)                               : 5 channels
Channel positions                        : Front: L C R, Side: L R
Sampling rate                            : 48.0 KHz
Bit depth                                : 16 bits
Compression mode                         : Lossy
Stream size                              : 255 MiB (21%)



IMDB link:                                 http://www.imdb.com/title/tt1692486/


Subtitles included                       : English, French, Polish, Romanian, __________________                         Spanish




Please seed at least 1,5:1 . This way this torrent has a chance to survive !




Thanks . Enjoy !!!



Source was:        Carnage 2011 1080p BluRay AC3 x264-EbP***                Thanks!

_______________

***Sorry for the first upload. For me Carnage.2011.LIMITED.1080p.BluRay.x264-SPARKS  was no good as rip source !!! [the same for 720p SPARKS]
